<svg width="200px" height="100px" version="1.1" viewBox="0 0 2e3 1e3" xmlns="http://www.w3.org/2000/svg">
	<defs>
		<style type="text/css"><![CDATA[.str0 {stroke:white;stroke-width:9.0000}
.filBlack {fill:black}
.filSim {fill:#38913F}
.filNao {fill:#C12E2D}
.filAut {fill:#454545}
.filWhite {fill:white}
.fil4 {fill:#6F263D}
.fil3 {fill:#CB333B}
.fil2 {fill:#E87722}
.fil1 {fill:#FFE900}
.fil0 {fill:#509E2F}
.shadow {filter: drop-shadow( 0px 0px 20px rgba(0, 0, 0, .9))}
.glow {filter: drop-shadow( 0px 0px 10px rgba(255, 255, 255, .9))}]]></style>
	</defs>
	<g id="MEM">
		<g id="autQueima" transform="translate(-213.35 .2)">
			<path class="filAut" d="m512.1 749.9h-200v200h200z"/>
			<path class="filWhite" transform="matrix(10 0 0 10 213.35 -.2)" d="m20.6543 76.5098c0 0.16 0 0.3807-0.059 0.5507-0.11 1.89-0.55 2.5588-2 3.7188-0.66 0.56-1.4408 0.9505-2.0508 1.7305-0.34 0.38-0.6704 1.1595-0.7304 1.7695-0.11 0.84 0.06 1.5011 0.3398 2.1211 0.11 0.27 0.2814 0.5501 0.4414 0.8301 0.5573 0.8259 1.2736 1.2739 2.4336 1.3867-0.1138-0.5216-0.3267-0.9151-0.375-1.7266-0.06-0.66 0.22-1.2201 0.5-1.6601 0.33-0.5 0.6113-0.7206 1.1113-1.0606 1.33-0.94 2.0599-2.8294 1.6699-4.6094-0.17-0.83-0.8412-2.3307-1.2812-3.0507zm-1.625 12.1074c0 0.018 0.012 0.034 0.016 0.053v-0.051c-0.01-5e-4 -0.01 0-0.016 0zm4.4551-7.668c-0.05 2-0.55 2.3914-2 3.4414-0.33 0.23-0.7195 0.5587-0.9395 0.8887-0.56 0.78-0.7793 1.8398-0.2793 2.8398s0.9986 1.4408 2.0586 1.5508h0.051c-0.11-0.44-0.2193-0.6593-0.2793-1.2793-0.05-0.44 0.1698-0.8807 0.3398-1.2207 0.55-0.83 0.8289-0.5508 1.5489-1.5508 0.45-0.61 0.6711-1.61 0.4511-2.5-0.11-0.61-0.3899-1.1699-0.6699-1.6699-0.06-0.11-0.2212-0.44-0.2812-0.5zm0.3398 8.7207 0.1113 1.3848c0.2518-0.012 1.8305-0.2149 1.8887-0.2149 0.11 0 0.7215-0.5005 0.7715-0.5605zm0.1113 1.3848c-0.01 4e-4 -0.055 0.01-0.061 0.01h0.061zm-7.2832-1.3692c-0.027 0-0.082 0.015-0.2168 0.045-0.45 0.11-2.501 0.44-2.621 0.5 0.06 0.11 0.6712 1.1587 0.7812 1.2187l2.8398-0.8887c-0.06-0.05-0.6704-0.83-0.7304-0.83-0.025-0.03-0.025-0.045-0.053-0.045zm2.8321 0.4844c-0.61 0.39-1.2201 0.8407-1.8301 1.2207-0.45 0.28-0.9498 0.6192-1.3398 0.9492-0.16 0.11-0.3295 0.2201-0.4395 0.3301h-0.1094c0.11 0.11 0.8889 0.8392 1.0489 0.9492 0.34-0.22 0.6211-0.4499 0.9511-0.6699l1.8887-1.3301c0.28-0.23 0.7214-0.4999 0.9414-0.6699-0.05-0.05-0.4408-0.3287-0.5508-0.3887-0.17-0.11-0.3905-0.2806-0.5605-0.3906zm1.4511 1-0.1054 1.1719c0.169 0.1112 1.2664 0.3886 1.5449 0.498 0.5 0.17 1.0605 0.39 1.5605 0.5l0.5-1.3906zm-0.1054 1.1719c-9e-4 -6e-4 -0.01 0-0.01 0v0.061z" stroke-width=".1"/>
		</g>
		<g id="autCortaMatos" transform="matrix(.25 0 0 .25 298.75 750.1)">
			<path class="filAut" d="m0 0h800v800h-800z"/>
			<path class="filWhite" d="m442.9 385.1c-47.7 7-84.6 40.4-97 87.8-2.6 9.9-3.6 31.8-2 43.1 7.2 49.3 42.9 86.9 92.6 97.6 10.9 2.3 33.1 2.3 44 0 27.7-6 51.4-20.2 67.7-40.6 37.5-46.8 34-113.2-8.1-155-25.6-25.5-62.7-38-97.2-32.9zm28.1 62.4c19 5 34.5 20.5 39.5 39.5 1.9 7.1 1.9 20 0 27.3-7.1 27.3-34.3 45.2-62 40.7-27.9-4.4-48.7-31.2-46.1-59.2 2.1-22.5 18.9-42.3 40.9-48.3 6.9-1.8 20.8-1.8 27.7 0zm-353.5 22.1c-19.1 4-34.4 13.1-45 26.6-11 14-15.8 28-15.8 45.8 0 13 1.8 20.4 8 33 3.9 7.8 6.3 11.1 13.3 18.1 7.1 7.1 10.1 9.3 18 13.2 12.9 6.3 20 8.1 33.5 8 12.9 0 20.4-1.7 32-7.3 19.5-9.5 33.2-26.5 38.7-48.2 1.7-6.9 2-10.2 1.5-20.3-0.8-20.2-7-34.1-21.6-48.5-14.2-14.1-31.3-21.1-51-20.9-5.3 0.1-10.5 0.3-11.6 0.5zm24.8 45.4c6.1 3 11.2 8.2 14.5 14.5 3.5 6.7 3.8 18.6 0.5 25.6-3 6.6-8.6 12.4-15.1 15.6-4.8 2.4-6.9 2.8-13.7 2.7-6.6 0-8.9-0.5-13.1-2.6-6.5-3.4-13.7-11.4-15.8-17.5-1.8-5.3-2.1-14.1-0.6-19.5 2.4-8.6 11.8-18.1 20.4-20.8 5.7-1.7 17.6-0.7 22.9 2zm98.7-270.5v12.5h75.7l-9.1 42.2-9.1 42.3-102.7 0.3-102.8 0.2v55.5c0 30.5 0.4 55.5 0.8 55.5 0.5 0 3.3-0.8 6.3-1.9 15.2-5.2 40.1-5.5 56.2-0.7 14.9 4.4 27.2 11.5 38.6 22.1 7 6.5 16.9 19.2 19 24.3l1.3 3.2h103.6l0.7-8.8c2.8-35.5 16.1-64.7 40.5-89.2 24.8-24.9 55.9-38.4 91.5-39.7 23.9-0.8 42.9 3 63.4 12.8l10.4 4.9h47.2c44.1 0 47.3 0.1 48 1.7 2 5.1 20.5 55.5 20.5 55.8s-10.6 0.5-23.5 0.5h-23.5v92h167v-92h-97.8l-10.5-28.3c-5.7-15.5-12.2-33-14.3-38.9l-3.9-10.8-60-0.2-59.9-0.3-8.8-50c-8-46.2-8.7-51.1-8.8-63.8v-13.7h-256zm122 55v42.5h-27c-22.1 0-27-0.2-27-1.4 0-1.4 16.7-80.2 17.5-82.4 0.3-0.9 4.9-1.2 18.5-1.2h18zm116-41.8c0 0.5 3.2 19 7 41.2 3.9 22.2 7 41 7 41.7 0 1.2-9.9 1.4-60 1.4h-60v-85h53c29.2 0 53 0.3 53 0.7zm-186 190.3-70.5-0.5v-54.946l70.5 0.446zm-123-220.5v36.5h9v69h17v-69h9v-73h-35z"/>
		</g>
		<g id="autMaquinasFlorestais" transform="translate(-1200.45 .1)">
			<path class="filAut" d="m1699.2 950v-200h200v200z"/>
			<path class="filWhite" transform="scale(10)" d="m186.314 80.0625c-0.06 8e-4 -0.133 0.01-0.171 0.027-0.15 0.08-1.741 1.1197-1.801 1.1797-0.05 0.04-0.06 0.08-0.06 0.1797 0 0.11 0.02 0.1617 0.35 0.6817 0.2 0.31 0.371 0.5698 0.381 0.5898 0.02 0.03-0.08 0.089-0.42 0.2793-0.06 0.03-0.21 0.1195-0.33 0.1895s-0.251 0.1496-0.301 0.1796-0.122 0.072-0.172 0.092c-0.04 0.03-0.127 0.079-0.187 0.1094-0.06 0.04-0.22 0.129-0.35 0.209-0.13 0.07-0.25 0.1311-0.27 0.1211s-0.31-0.411-0.39-0.541c-0.01-0.04-0.03-0.06-0.05-0.07-0.01-0.01-0.05-0.059-0.08-0.1192-0.03-0.06-0.07-0.1091-0.09-0.1191-0.01-0.01-0.03-0.04-0.05-0.07-0.05-0.1-0.319-0.48-0.349-0.5-0.02-0.01-0.142-0.071-0.272-0.1211-0.14-0.049-0.289-0.1185-0.349-0.1485-0.2-0.09-0.521-0.2207-0.551-0.2207-0.01 0-0.08-0.031-0.149-0.061-0.39-0.1805-0.529-0.2205-0.679-0.2305l-0.16-0.02-0.112 0.1211c-0.12 0.12-0.13 0.1688-0.08 0.2988 0.04 0.09 0.18 0.15 1.58 0.75 0.35 0.14 0.361 0.1508 0.471 0.3008 0.25 0.32 0.769 1.0305 0.779 1.0605 0.01 0.02-0.04 0.06-0.119 0.1-0.16 0.08-0.269 0.1398-0.439 0.2598-0.11 0.07-0.431 0.25-0.871 0.5-0.07 0.04-0.141 0.08-0.161 0.09-0.05 0.04-0.79 0.4593-0.91 0.5293-0.24 0.13-0.469 0.2606-0.689 0.3906-0.14 0.08-0.44 0.2604-0.68 0.4004-0.25 0.13-0.55 0.3089-0.67 0.3789-0.29 0.17-1.181 0.6797-1.611 0.9297-0.2 0.11-0.39 0.22-0.44 0.25-0.04 0.02-0.169 0.1001-0.289 0.1601-0.12 0.07-0.321 0.1917-0.441 0.2617s-0.229 0.1387-0.229 0.1387c-0.01 0-0.07 0.03-0.13 0.07s-0.119 0.08-0.129 0.08c0 0-1.041 0.5902-1.151 0.6602-0.1 0.06-0.46 0.2698-0.59 0.3398-0.07 0.04-0.15 0.08-0.17 0.1-0.04 0.03-0.07-1e-4 -0.09-0.08 0-0.059-0.01-0.069-0.182-0.059-0.1 0-0.189 0.019-0.199 0.039-0.01 0.01-0.02 0.1395-0.02 0.2695 0 0.24 0 0.25-0.05 0.25-0.07 0-0.09 0.08-0.07 0.2403 0.01 0.1101 0.02 0.1401 0.06 0.1601 0.05 0.02 0.06 0.041 0.06 0.1309v0.1094h-1.65v0.2793h0.59c0.32 0 0.58 0.011 0.58 0.021s-0.04 0.039-0.08 0.059c-0.119 0.04-0.119 0.061-0.119 0.2305 0 0.2397-0.08 0.2207 0.869 0.2207h0.849v-0.09c0.03-0.19 0.02-0.2614-0.05-0.3614l-0.07-0.09 0.32 0.02c0.17 0.012 0.36 0.012 0.42 0.012 0.08 0 0.11 0.01 0.11 0.029-0.01 0.02-0.08 0.039-0.19 0.049l-0.179 0.012v0.209l-0.01 0.2109h2.158v-0.1211c0-0.35-0.129-0.8894-0.269-1.1894-0.12-0.24-0.371-0.5598-0.571-0.7598-0.198-0.1895-0.198-0.1905-0.138-0.2305 0.03-0.01 0.239-0.1395 0.459-0.2695s0.66-0.3803 0.98-0.5703c0.31-0.18 0.971-0.5596 1.461-0.8496 0.49-0.28 0.99-0.5802 1.1-0.6602 0.12-0.08 0.279-0.1707 0.359-0.2207 0.08-0.03 0.251-0.129 0.381-0.209s0.479-0.2811 0.779-0.4511c0.48-0.27 0.83-0.4694 1.93-1.1094 0.21-0.13 0.99-0.5896 1.74-1.0196l1.359-0.8007 0.131 0.2011c0.41 0.66 0.529 0.8289 0.629 0.8789 0.07 0.03 0.112 0.04 0.182 0.02 0.1-0.03 1.779-1.109 1.879-1.209 0.06-0.06 0.08-0.09 0.08-0.1895 0-0.11-0.03-0.1511-0.17-0.3711-0.09-0.14-0.18-0.269-0.19-0.289-0.01-0.01 0.07-0.08 0.19-0.1602 0.131-0.09 0.211-0.1514 0.221-0.1914 0.01-0.05-0.07-0.1987-0.411-0.7187-0.49-0.77-0.45-0.7408-0.75-0.5508-0.1 0.06-0.191 0.1094-0.201 0.1094s-0.1-0.1289-0.209-0.2989c-0.1-0.16-0.22-0.3193-0.25-0.3593-0.06-0.059-0.1-0.068-0.176-0.068zm-12.804 9.8574c0.02 0 0.188 0.1893 0.228 0.2793 0.11 0.19 0.223 0.5109 0.223 0.6309 0 0.07-0.01 0.07-0.143 0.08-0.09 0.01-0.38 0.01-0.66 0l-0.51-0.01v-0.1c-0.01-0.08 0-0.1009 0.06-0.1309 0.07-0.04 0.08-0.049 0.09-0.1894v-0.1407l0.349-0.2089c0.19-0.11 0.35-0.211 0.36-0.211z"/>
		</g>
		<path id="proibido" class="filNao" transform="translate(282.256 -.3)" d="m595.2 889.7 18.5-18.3-21.6-21.1 21.2-21.5-18.5-18.5-21.1 21.5-21.3-21.4-18.4 18.5 21.3 21.4-21.3 21 18.5 18.4 21.2-21z" fill="#c12e2d"/>
		<g id="naoQueimada" transform="translate(799.805 .098)">
			<path class="filNao" d="m107.4 949.9h200v-200h-200z" fill="#c12e2d"/>
			<path class="filWhite" transform="scale(10)" d="m16.1895 76.5391c0.11 0.33 0.3301 0.6113 0.1601 1.1113-0.16 0.39-0.44 0.5598-0.5 0.8398-0.16 0.38 0.2213 1.4389 1.1113 1.5489-0.22-0.5-0.6601-0.8895-0.1601-1.4395 0.11-0.11 0.2195-0.2292 0.2695-0.4492 0.45-0.89-0.051-1.4413-0.8808-1.6113zm4.2714 1.3906c-0.61 0.28-1.6607 1-2.0507 1.5-0.34 0.39-0.3906 0.6707-0.5606 1.2207-0.16 0.5 0.1713 0.9992 0.2813 1.4492l-0.061-0.1094-0.8808-0.5c-0.84-0.45-2.28-0.9505-3.17-1.0605 0.05 0.28 0.1713 0.5007 0.2813 0.7207 0.27 1 0.1595 1.5592-0.2305 2.4492l-0.3301 0.6602c-0.39 0.73-0.7194 1.0605-0.9394 2.0605-0.17 0.55-0.1712 1.1688 0.049 1.7188 0.17 0.56 0.4999 0.8418 0.8399 1.1718 0.66 0.55 0.9407 0.8288 1.7207 1.2188l0.6093 0.2812c0.17 0 0.1708 0 0.051-0.1718-0.05-0.05-0.049-0.1082-0.1094-0.1582-0.55-1-0.7714-2.17-0.2714-3.17 0.66-1.34 1.4407-1.5013 1.5507-3.1113 0.11 0.05 0.4994 0.2706 0.6094 0.3906 0.89 0.61 0.8899 1.2707 1.1699 1.8907 0.17-0.17 0.2801-0.95 0.3301-1.17 0.06-0.5-0.049-0.8418-0.1094-1.3418 0.06 0.12 0.6693 1.0111 0.7793 1.1211 0.67 0.94 1.2213 2.2189 1.2813 3.3789 0 0.39-0.061 0.5113-0.1113 0.7813l0.5-0.5c0.16-0.16 0.33-0.3908 0.5-0.5508 0.27-0.39 0.5514-0.8393 0.7714-1.2793 0.28-0.56 0.3894-1.0599 0.1094-1.6699-0.33-0.72-0.8295-1.2201-1.2695-1.8301-0.17-0.22-0.2812-0.3894-0.4512-0.6094-0.89-1.22-1.3288-2.3911-1.0488-3.9511 0.05-0.27 0.1601-0.6101 0.1601-0.8301zm4.0586 5.6699c0.17 0.83 0.3314 1.2208-0.059 2.0508-0.39 0.89-0.8313 1.1694-1.1113 1.6094-0.39 0.62-0.5493 0.8905-0.2793 1.5605 0.23 0.44 0.4505 0.7794 0.7305 1.1094l0.2012 0.2012c-0.046-0.2765-0.077-0.4334 0.018-0.8106 0.11-0.56 0.39-1.06 0.67-1.5l0.3808-0.5605 0.061-0.049 0.059-0.06c-0.06 0.45-0.1187 1.0592 0.1113 1.4492 0.11-0.17 0.22-0.5593 0.5-0.7793 0.11-0.11 0.6095-0.45 0.7695-0.5 0.06 0.56 0.2306 1.0495 0.5606 1.4395 0.22 0.34 0.6686 0.67 0.3886 1.5-0.17 0.5-0.4492 0.7811-0.4492 0.9511 0.62-0.11 1.7792-0.9505 1.9492-1.5605 0.33-1.05-0.4487-1.8913-0.7187-2.6113-0.34-0.83-0.2312-1.1087 0.049-1.8887-0.55 0.06-1.3887 0.3394-1.8887 0.6094-0.16 0.11-0.3907 0.2293-0.5507 0.2793 0.05-0.28 0.2801-0.5482 0.1601-0.8282-0.11-0.33-0.1601-0.5007-0.3301-0.7207-0.17-0.17-0.8907-0.7806-1.2207-0.8906zm-0.5175 6.5313c0.01 0.046 0.01 0.073 0.018 0.1289h0.1114zm-5.0918-2.7012c-0.89 0.11-1.8894 0.5606-2.1094 1.3906-0.11 0.39 1e-4 0.6706 0.1601 0.8906 0.11-0.28 0.1093-0.3905 0.2793-0.5605 0.11-0.11 0.3293-0.2706 0.4493-0.3906 0 0.95 0.6607 1.0598 0.5507 1.8398-0.05 0.28-0.1099 0.3913-0.1699 0.6113 1.06-0.11 1.3905-1.2818 1.2305-1.6718-0.17-0.44-0.7813-0.7789-0.6113-1.5489 0.05-0.23 0.1607-0.3905 0.2207-0.5605zm-5.7793 3.8906v1.6094h15.6699v-1.6094z"/>
		</g>
		<g id="naoFogueiraRecreio" transform="matrix(.25 0 0 .25 1107.21 749.998)">
			<path id="bkFire" class="filNao" d="m0 0h800v800h-800z"/>
			<path id="fire" d="m664.828 0-9.861 9.66838c-26.839 25.4968-73.704 54.6058-125.73 77.9355-84.232 37.7811-190.246 65.1361-288.724 74.5301-51.613 4.955-109.935 4.438-152.258-1.446-24.8774-3.509-54.0905-10.942-71.226-18.065-4.2323-1.858-9.85822-3.898-11.4066-4.517l-5.61829-2.362-4e-3 11.503c0.61936 0.309 9.18343 3.635 12.8996 5.079l6.7092 2.684 14.4527 48c7.8451 26.426 14.6581 48.517 15.0711 49.136 0.4129 0.62 16.7218-15.896 37.3667-37.987l36.7497-39.02 12.182 0.723c6.709 0.31 16.412 0.723 21.677 0.723l9.392 0.103 29.11 44.388c16 24.361 29.419 44.387 29.832 44.387 0.31 0 11.665-21.678 25.085-48.207l24.361-48.206 17.961-2.891c9.806-1.549 18.581-2.787 19.51-2.89 0.826 0 16.619 16.207 35.096 36.129 18.374 19.819 33.652 36.129 33.962 36.129s7.019-21.057 14.864-46.76c7.845-25.601 14.658-46.969 14.968-47.383 0.31-0.412 8.464-3.096 17.961-5.883l17.342-5.265 41.496 32.104c22.814 17.754 42.117 32.619 42.84 33.238 0.723 0.517 1.446 0.827 1.756 0.62 0.206-0.309 3.612-24.052 7.534-52.852 3.923-28.8 7.33-52.5424 7.537-52.6453 0.206-0.1038 8.98-4.5415 19.509-9.909 15.277-7.7421 19.606-9.474 21.574-8.8777 1.439 0.436 23.743 9.0837 49.549 19.0963 25.91 10.1167 47.174 17.9617 47.38 17.4457 0.207-0.413-2.992-22.9169-7.122-49.8591l-7.431-49.0313 3.509-4.12956 4.501-5.42845zm-221.991 217.979c-0.31 0-0.517 4.025-0.517 9.083 0 16.826-4.645 48.517-9.497 64.001-8.464 27.665-33.239 55.123-77.213 85.677-24.258 16.826-46.245 36.852-54.194 49.239-9.497 14.658-18.168 35.716-21.677 52.645-3.613 16.929-2.167 40.568 3.717 58.426 4.541 13.936 18.27 39.329 28.386 52.543 7.948 10.426 22.194 22.708 32.001 27.663 8.567 4.336 35.613 11.562 43.355 11.562h2.374l-2.064-5.986c-6.297-18.065-11.356-44.8-11.356-59.975 0-29.626 20.438-63.277 50.684-83.716 17.961-12.077 35.82-32.62 46.039-52.955 18.167-35.922 21.781-76.181 10.633-115.924-4.645-16.826-14.348-40.257-27.871-67.612-6.709-13.626-12.49-24.671-12.8-24.671zm97.857 149.678-0.721 10.631c-0.723 11.768-2.892 26.324-5.473 36.749-4.851 20.233-19.818 39.123-46.657 58.839-5.884 4.335-14.451 10.633-19.096 13.935-4.542 3.407-13.214 11.046-19.201 17.033-9.703 9.807-11.458 12.077-16.207 21.78-8.361 16.93-11.664 29.42-11.664 43.872 0 30.761 23.226 71.535 47.588 83.509 6.399 3.097 26.736 8.878 31.588 8.878 0.929 0 0.825-1.238-0.311-4.954-3.097-10.116-6.607-25.808-7.536-34.479-1.239-10.942-0.103-18.993 4.13-29.522 6.193-15.588 16.413-28.077 31.38-38.503 4.542-3.2 11.975-9.704 16.517-14.556 26.013-27.664 35.406-66.889 25.187-105.703-2.787-10.632-9.91-28.49-18.478-46.349-3.819-7.948-7.845-15.999-8.981-17.857zm0 253.111c-0.929-0.31-1.341 0.825-1.341 3.509 0.103 7.948 2.994 46.038 3.509 46.657 0.414 0.31 16.516-1.134 36.026-3.302l35.303-3.924 13.523-10.011c7.535-5.471 13.317-10.221 12.904-10.531-0.309-0.309-22.711-5.367-49.653-11.251s-49.652-10.837-50.271-11.147zm-263.948 0.928c-2.684 0.103-101.162 19.614-101.678 20.026-0.206 0.207 5.78 10.426 13.213 22.606l13.625 22.193 4.335-1.341c28.904-8.877 98.479-31.071 99.202-31.691 0.413-0.412-5.265-7.742-12.8-16.309-10.013-11.355-14.245-15.588-15.897-15.484zm103.432 19.509c-1.548 0.31-132.438 90.014-132.438 90.737 0 1.238 35.715 34.167 37.057 34.167 0.723 0 133.368-93.523 136.155-96 0.413-0.413-8.464-7.019-19.819-14.864-11.458-7.742-20.851-14.04-20.955-14.04zm53.781 33.034c-0.309 0-1.136 8.257-1.755 18.271-0.723 10.115-1.549 20.232-1.859 22.502l-0.618 4.13 56.36 17.445c31.072 9.6 56.569 17.239 56.775 17.032 0.723-0.929 17.446-50.58 17.033-50.786-0.206-0.207-28.49-6.711-62.864-14.453-34.375-7.846-62.762-14.141-63.072-14.141z" fill="#fff" stroke-width=".774196"/>
		</g>
		<g id="naoGrelhador" transform="translate(675.11 -.002)">
			<path class="filNao" d="m832.1 950v-200h-200v200z"/>
			<path class="filWhite" transform="matrix(10,0,0,10,-420,-350)" d="m116.27 110.67c-0.34 0.16-0.89 0.829-1.11 1.279-0.34 0.66-0.28 1.272 0 1.942 0.38 1.17 0.829 2.06 0.379 3.33-0.05 0.12-0.158 0.339-0.158 0.449l0.05 0.05c0.11 0 0.5-0.441 0.56-0.551 1.39-1.78-0.83-3.17-0.06-5.67 0.11-0.33 0.34-0.72 0.34-0.83zm-2.889 1c-0.22 0.16-0.561 0.5-0.721 0.83-0.95 1.56 0.94 2.499 0.11 4.449-0.17 0.39 0.16 0 0.22-0.06 1.17-1.17 0-2.33 0-3.67v-0.05c0-0.28 0.05-0.56 0.11-0.84 0.06-0.22 0.221-0.55 0.281-0.66zm-5.781 6.83v0.779l0.06-0.06h0.721c0.11 0.73 0.16 0.998 0.5 1.558 0.78 1.22 2.39 2.171 3.83 2.391l-2.051 4.83 0.94 0.391 0.5-1.112h2.67c0.11 0 0.05 0.22 0.269 0.5 0.34 0.5 1.002 0.781 1.672 0.721 0.78-0.11 1.449-0.829 1.389-1.779-0.11-1.5-1.94-2.002-2.83-1.112-0.23 0.23-0.34 0.391-0.45 0.731-0.05 0.16 0 0.269-0.109 0.269h-2.33l1.389-3.269h1.111c0.05 0.11 0.658 1.77 0.658 1.83v0.05c0.17-0.05 0.501-0.165 0.621-0.225l-0.621-1.721c0.12-0.06 0.672-0.164 0.842-0.214 0.28-0.06 0.549-0.176 0.779-0.286 2.88-1.28 2.829-3.385 2.879-3.435l0.06-0.06h0.781v-0.777zm2.111 1.109h0.779c0.17 0.39 0.55 0.782 0.83 0.952 0.45 0.39 0.719 0.39 1.219 0.5v0.779c-0.83 0.16-2.658-0.731-2.828-2.231zm6.754 6.481c0.337 0 0.643 0.291 0.695 0.58 0.11 0.44-0.17 0.78-0.5 0.83-0.89 0.22-1.28-1.111-0.34-1.391 0.05-0.01 0.1-0.02 0.145-0.02z"/>
		</g>
		<g id="naoFumigar" transform="matrix(.25 0 0 .25 1507.21 749.998)">
			<path class="filNao" d="m0 0h800v800h-800z"/>
			<path class="filWhite" d="m547.2 143.8c-2.9 0.4-6 5.3-12.9 20.2-2.9 6.3-5.9 12.6-6.7 14-0.7 1.4-2.5 5.7-4 9.6-3.3 8.7-7.7 15.9-15.3 24.7-18.7 21.8-49 28.3-79 16.9-11.9-4.5-17.9-7.9-35.2-20-7.3-5.1-13.5-9.1-13.7-9-0.1 0.2 0.8 8.6 2.2 18.8 2.8 21.4 1.1 18.7 18.3 28.9 14.1 8.4 30.3 14.7 43.1 16.8 13.1 2.2 31.7 1.8 39-0.8 3-1 6.1-1.9 7-1.9 4 0 28.4-13.7 30.9-17.4 0.8-1.2 4.2-4.8 7.6-8.1 4.3-4.1 7.4-8.3 9.9-13.5 2.1-4.1 4.4-8.3 5.3-9.2 0.9-1 3.7-6.4 6.3-12 2.7-5.6 5.2-10.4 5.7-10.5 0.5-0.2 1.6 1 2.4 2.6 3.2 6.7 24.7 28.8 30.8 31.7 1.9 0.9 5.7 3 8.5 4.7 7 4.1 22.3 8.4 32.6 9.2 9.7 0.7 23.9-1.4 30.5-4.4 2.2-1.1 6.1-2.8 8.8-3.9 2.6-1.2 4.7-2.5 4.7-3 0-0.4 2.7-2.6 6-4.7s7.1-5.6 8.5-7.7c1.4-2.2 4.1-5.6 5.9-7.6s4.5-5.9 6-8.5c1.4-2.6 3.3-5.8 4.1-7.1 1.5-2.3 1.4-2.5-5.2-7.3-13.9-10.1-17.1-12.3-17.9-12.3-0.5 0-3.4 4.2-6.4 9.2-3.8 6.3-7 10.3-10 12.5-2.5 1.9-5.6 4.3-6.9 5.4-3.3 2.8-11.4 5.9-19.1 7.3-12 2.2-27.6-1.5-39.6-9.3-11.6-7.6-25.3-24.9-34.2-43.2-1.2-2.5-3.4-5.7-4.9-7.2-2.9-2.7-9.1-4.5-13.1-3.9zm-231.7 53.5c-18.7 9-50.4 24.4-70.5 34.2s-43.6 21.1-52.3 25.1-16.1 7.4-16.3 7.7c-0.9 0.8 10.3 8.5 18.2 12.5 20 10 44.4 16.1 91.9 22.7 9.3 1.3 17.3 2.1 17.7 1.9 0.8-0.5 41.5-58.6 56.5-80.8l8.1-11.9-9.1-13.8c-5.1-7.6-9.4-13.9-9.7-13.9s-15.8 7.4-34.5 16.3zm-233.8 65.6c-0.3 1.6-13.7 35-29.8 74.2-16 39.3-29.4 72.3-29.6 73.4-0.3 1.7 1.8 2.9 16.7 8.9 9.4 3.8 17.3 6.7 17.5 6.4 0.3-0.3 9.1-21.6 19.6-47.4s19.4-47.2 19.8-47.5c0.3-0.4 6.3 0.8 13.2 2.5l12.5 3.1 10.2 9.5c5.6 5.2 10.2 9.8 10.2 10.2s-8.1 31-18 67.9-18 68.4-18 69.9c0 3.6 8.3 11.3 22 20.5 23.4 15.7 50.2 24.5 74.5 24.5 11.5 0 17.6-0.9 25.5-3.9 11.1-4.2 8.4 2.8 32.4-86.6 18.7-70 22.5-82.9 30.1-103.5 4.8-12.9 8.9-24.2 9.2-25.1 0.4-1.4-1.7-1.7-17.4-2.2-50.1-1.6-84.5-12-111.9-33.8l-7.4-5.9-38.7-9c-21.2-4.9-39.4-9-40.3-9-1.1 0-2 1.1-2.3 2.9zm575.7 0.8c0.2 1 0.8 5.4 1.1 9.8 0.4 4.4 0.9 8.7 1.1 9.6 0.3 1.2-0.5 2-2.4 2.7-1.6 0.5-4.6 2.5-6.6 4.3l-3.8 3.3-10.8-3.6c-9.1-3-11-3.3-11.4-2.1-0.3 0.8-0.6 1.6-0.6 1.8s4.9 2 10.8 3.9l10.8 3.6-0.4 3.5c-0.2 1.9-0.1 5.1 0.2 7.1 0.8 4 7 11.4 9.5 11.4 1 0 7.3-3.4 14-7.6l12.3-7.6-0.5-3.6c-1.2-7.1-6.6-12.4-15.8-15.5-1.2-0.4-1.8-2.5-2.3-8.4-1.1-12.4-1.6-14.3-3.8-14.3-1.4 0-1.8 0.5-1.4 1.7zm29.8 40.8c-1.8 1.3-2.3 2.4-1.9 4.4 0.5 2.3-0.1 3.1-5.1 6.3-14.4 9.1-22 12.9-24.7 12.2-1.7-0.4-3.2-0.1-4.4 1-4.9 4.4-11.8 26.6-10.6 34.1 1.2 8.2 11.9 21.5 17.2 21.5 4.2 0 11-9.2 13.3-17.9 0.8-3 1.5-4 2.2-3.3 1.2 1.2 10.8-4.2 27.1-15.4 5.9-4.1 11.2-7.4 11.8-7.4s0.9-0.6 0.6-1.4c-0.4-1.1 1.2-1.4 7.7-1.8 10.8-0.6 16-2.9 16.4-7.6 0.5-4.7-3.8-13.1-9.2-18-5.7-5.3-12.2-7.2-26.6-7.9-9.8-0.4-11.8-0.2-13.8 1.2zm-279.7 103.3-92 65.7 21.3 0.3 21.2 0.2v169h47l0.2 52.7 0.3 52.8 11.3 0.3 11.2 0.3v-106.1h163v106h23v-106l19.8-0.2 19.7-0.3 0.3-84.7 0.2-84.8 19.5-0.2 19.5-0.3-95.4-64.7c-52.5-35.6-96-65-96.7-65.2-0.8-0.3-42.8 29.1-93.4 65.2zm224.5 174.2v15h-250v-30h250zm77-227.8c-3 2.2-10.1 6.7-15.7 10.1-5.7 3.4-10.3 6.4-10.3 6.7 0 1.1 8.8 5.9 12.8 6.9 9 2.4 18-3.3 20.1-12.7 1-4.8 0.5-15.3-0.8-15.1-0.3 0-3.1 1.9-6.1 4.1zm-65.5-316.3c-7.2 1-18 5.7-25.4 10.9-3.5 2.5-10 8.8-14.5 13.9-4.4 5.1-8.4 9.3-8.8 9.3s-2.7-1.8-5-4c-6.3-6.2-20.3-14.2-29.8-17.2-9.3-3-24.8-4.1-28.5-2.1-1.1 0.6-3.7 1.4-5.9 1.7-5.7 1.1-19.2 10.8-21.7 15.9-1.2 2.2-3.7 6.2-5.6 9-3.9 5.5-7.6 13.3-13.3 27.7-2.1 5.2-7.8 18.1-12.8 28.7-4.9 10.5-9.5 20.7-10.1 22.5s-2.8 5.4-4.9 8c-8.4 10.6-19.5 15.8-29.2 13.7-9.2-2-10.7-2.8-36.4-20.8-14-9.8-15-10.3-16.2-8.6-0.8 1-1.4 2.4-1.4 2.9 0.2 3.7 3.9 29.6 4.4 30.4 0.4 0.6 5.7 4.6 11.9 9 22.4 15.7 29.9 18.7 46.2 18.6 10-0.1 11.7-0.4 18.3-3.2 12-5.1 21.7-15 31.4-31.7 3.5-6.2 10.1-20.2 12.4-26.6 1.3-3.7 5.3-12.7 8.8-20 3.5-7.4 8.7-18.6 11.6-24.9 5.9-13 6.5-13.8 12.9-18 6.4-4 13.9-4.9 22.9-2.5 3.7 1 7.4 2.3 8.2 3s3.1 2.1 5 3c4.4 2.2 13.3 11.4 17.6 18.1 5 7.7 9.9 11.4 15.2 11.4 5.7 0 8.5-2.9 14-14.5 6.5-13.5 14.3-22.7 23.3-27.4 16.9-8.9 33.2-7.4 50.9 4.8 14 9.5 22.3 21 29.5 40.6 2.9 7.7 2.7 29.9-0.2 37.8l-2.2 5.7 4.4 3.3c9.4 6.9 19.4 13.7 20.2 13.7 1.3 0 6-18.1 7.4-28.1 1-7.2 0.9-10.5-0.6-21-2.9-20.8-7.1-32.3-18.1-48.9-13.2-20-31.8-34.9-51.9-41.5-8.6-2.8-24.2-4-34-2.6z"/>
		</g>
		<g id="naoFogoArtificio" transform="translate(871.11 -.002)">
			<path class="filNao" d="m1036.1 950v-200h-200v200z"/>
			<path class="filWhite" transform="scale(10)" d="m101.83 77.1094-4.7695 1.1797 0.5489 0.541-5.2989 5.2597c0.11 0.1 0.5097 0.4804 0.5997 0.5704l-0.1895 0.1191c-0.11 0.06-0.2298 0.1099-0.3398 0.1699-0.27 0.11-0.5507 0.1113-0.8907 0.1113-0.27-0.06-1.1095-0.4499-1.2695-0.6699 0.28 0.06 1.2201 0.4494 1.3301 0.1094 0.17-0.5-0.8901-0.2801-1.3301-0.3301 0.33-0.22 1.4395-0.2199 1.2695-0.6699-0.16-0.33-1.0492 0.4066-1.33 0.5 0.1978-0.2674 1.2091-0.9635 0.8359-1.209-0.3546-0.2333-0.7759 0.8788-1.0059 1.0488 0-0.28 0.4492-1.2306 0.1192-1.3906-0.56-0.23-0.3399 1.0501-0.3399 1.3301-0.22-0.17-0.2787-1.4999-0.7187-1.1699-0.33 0.23 0.4986 1.0612 0.5586 1.2812-0.5066-0.2724-0.8828-1.1353-1.1699-0.7812-0.3132 0.3863 0.8878 0.8102 1.0507 1.0605-0.33-0.06-1.2708-0.4494-1.3808-0.1094-0.17 0.5 0.9401 0.3301 1.3301 0.3301-0.3361 0.1774-0.759 0.2456-1.1094 0.3301-0.34 0.17-0.1699 0.4987 0.1601 0.3887 0.28-0.11 0.67-0.44 1-0.5-0.16 0.28-1.05 0.8413-0.83 1.1113 0.22 0.28 0.5005-0.2201 0.5605-0.3301 0.11-0.17 0.2687-0.5513 0.3887-0.6113-0.06 0.33-0.4499 1.2206-0.1699 1.3906 0.5 0.28 0.33-0.9501 0.33-1.3301 0.17 0.16 0.099 0.9608 0.4512 1.2051 0.09 0.063 0.2709 0.093 0.3301 0 0.238-0.3732-0.5006-0.9851-0.5606-1.2051 0.3083 0.1505 0.6119 0.4667 0.8399 0.6602 0.22 0.11 0.2806 6e-4 0.3906-0.1094 0.39 0.06 0.6588 0.059 1.0488-0.051 0.22-0.06 0.4514-0.1693 0.6114-0.2793 0.09-0.06 0.1885-0.1301 0.2285-0.1601 0.37 0.39 0.7608 0.8194 1.1308 1.1894-0.67 0.69-6.2794 6.34-7.1894 7.25l0.5 0.5c3.5-3.5 9.4892-9.6169 12.4492-12.6269l0.578 0.5801zm-3.6913 2.2422 1.4101 1.4121-0.2187 0.2187-1.9531-0.8691zm-1.3985 1.3984 2.0039 0.8184-0.8183 0.8183-1.9883-0.8359zm-1.4765 1.4941 1.9375 0.8672-0.8067 0.8067-1.9746-0.8477zm-1.5547 1.5371 1.9785 0.8438-0.8164 0.8164-1.4356-1.3867zm-3.9238 0.336c0.099-0.01 0.2163 0.1 0.1679 0.2168-0.07 0.1703-0.3392 0.076-0.2754-0.1231 0.02-0.062 0.062-0.09 0.1075-0.094z" stroke-width=".1"/>
		</g>
	</g>
	<g id="Base">
		<path id="reduzido-b" class="fil0" d="m878.7 611.8-323.9-235.1c-68.3 94-105.1 207.2-105.1 323.3h400.3c0-33 10.6-63.4 28.7-88.2z"/>
		<path id="moderado-b" class="fil1" d="m953.7 557.3-123.7-380.4c-110.5 35.9-206.9 105.9-275.2 199.8l323.9 235.1c18.4-25.3 44.6-44.6 75-54.5z"/>
		<path id="elevado-b" class="fil2" d="m1046.5 557.3 123.7-380.4c-54.9-17.8-112.3-26.9-170.1-26.9-57.7 0-115.1 9.1-170.1 26.9l123.7 380.4c14.6-4.7 30.2-7.3 46.4-7.3s31.8 2.6 46.4 7.3z"/>
		<path id="muitoelevado-b" class="fil3" d="m1121.6 611.8 323.9-235.1c-68.4-93.9-164.7-163.9-275.3-199.8l-123.7 380.4c30.5 9.9 56.6 29.2 75.1 54.5z"/>
		<path id="maximo-b" class="fil4" d="m1150.2 700h400.4c0-116.1-36.8-229.3-105.1-323.3l-323.9 235.1c18 24.8 28.6 55.2 28.6 88.2z"/>
	</g>
	<g id="selMaximo">
		<path id="s-maximo" class="fil4 shadow" d="m1150.2 700h500.5c0-137.3-43.5-271-124.3-382.1l-404.8 293.9c18 24.8 28.6 55.2 28.6 88.2z"/>
		<polygon id="p-maximo" class="filBlack glow" points="1506.9 551.1 1558.4 518.6 1497.6 522.6 1001.4 683.8 1e3 700 1010.7 712.3"/>
		<path id="txtMaximo" style="display:none" d="m209.761 34.6737-11.681 11.7971v1.4399h7.873l15.814-11.2399v-1.9971zm236.43 17.8814c-10.372 0-18.468 2.9416-24.29 8.8247-5.821 5.8831-8.756 14.073-8.756 24.5697 0 10.5276 2.935 18.8255 8.756 24.8945 5.852 6.038 13.895 9.057 24.175 9.057 6.688 0 12.541-1.363 17.556-4.087 5.016-2.756 8.893-6.719 11.588-11.89 2.694-5.1711 4.017-11.1625 4.017-17.9745 0-10.3728-2.925-18.5318-8.777-24.4768-5.821-5.945-13.896-8.9176-24.269-8.9176zm-347.597 0.9754v65.4415h12.1463v-39.6642c0-2.3223-0.186-7.0752-0.558-14.2588l4.969 17.4171 11.821 36.5059h9.73l11.821-36.5059c1.052-3.2821 2.655-9.0878 4.853-17.4171-0.278 6.812-0.434 10.667-0.465 11.565v42.358h12.17v-65.4415h-18.254l-12.029 38.4104-2.926 10.4971-2.229-8.7786-1.022-3.5298-11.682-36.5991zm99.0913 0-23.873 65.4415h13.724l5.784-16.72h24.964l5.806 16.72h13.538l-23.78-65.4415zm45.191 0 20.761 31.0257-22.664 34.4158h14.49l16.442-26.0557 16.441 26.0557h14.422l-21.806-34.4158 19.878-31.0257h-14.375l-14.56 23.1298-14.515-23.1298zm67.068 0v65.4415h13.725v-65.4415zm26.451 0v65.4415h12.146v-39.6642c0-2.3223-0.19-7.0752-0.559-14.2588l4.969 17.4171 11.797 36.5059h9.754l11.797-36.5059c1.058-3.2821 2.701-9.0878 4.9-17.4171-0.274 6.812-0.452 10.667-0.488 11.565v42.358h12.17v-65.4415h-18.229l-12.03 38.4104-2.926 10.4971-2.23-8.7786-1.044-3.5298-11.682-36.5991zm109.796 9.8c6.038 0 10.73 2.0126 14.073 6.0379 3.344 3.9943 4.994 9.5213 4.994 16.5811 0 7.4003-1.65 13.1131-4.994 17.1385-3.312 4.025-8.057 6.038-14.188 6.038-5.914 0-10.567-2.059-14.004-6.177-3.405-4.1495-5.108-9.816-5.108-16.9995 0-7.1216 1.649-12.6642 4.993-16.6275 3.343-3.9943 8.104-5.9915 14.234-5.9915zm-240.425 0.2782 0.975 3.2048 1.997 6.3166 6.48 18.8104h-18.834c4.891-14.2432 7.555-22.0771 7.989-23.5014 0.428-1.4243 0.832-2.694 1.141-3.8085z" stroke-width="9.95265"/>
	</g>
</svg>
